<svg xmlns="http://www.w3.org/2000/svg" width="512" height="512" viewBox="0 0 512 512">
  <defs>
    <linearGradient id="bgGradient" x1="0%" y1="0%" x2="100%" y2="100%">
      <stop offset="0%" style="stop-color:#faf8f5"/>
      <stop offset="100%" style="stop-color:#d4af37"/>
    </linearGradient>
    <linearGradient id="heartGradient" x1="0%" y1="0%" x2="100%" y2="100%">
      <stop offset="0%" style="stop-color:#d4b5a0"/>
      <stop offset="100%" style="stop-color:#9caf88"/>
    </linearGradient>
  </defs>

  <!-- Background circle -->
  <circle cx="256" cy="256" r="248" fill="url(#bgGradient)" stroke="#d4af37" stroke-width="8"/>

  <!-- Wedding rings -->
  <g transform="translate(256, 215.04)">
    <circle cx="-30.72" cy="0" r="40.96" fill="none" stroke="#d4af37" stroke-width="10.666666666666666"/>
    <circle cx="30.72" cy="0" r="40.96" fill="none" stroke="#d4af37" stroke-width="10.666666666666666"/>
    <circle cx="-30.72" cy="0" r="20.48" fill="#d4af37" opacity="0.3"/>
    <circle cx="30.72" cy="0" r="20.48" fill="#d4af37" opacity="0.3"/>
  </g>

  <!-- Heart -->
  <g transform="translate(256, 320)">
    <path d="M0,20.48 C-20.48,0 -40.96,0 -40.96,20.48 C-40.96,40.96 0,64 0,64 C0,64 40.96,40.96 40.96,20.48 C40.96,0 20.48,0 0,20.48 Z"
          fill="url(#heartGradient)" opacity="0.8"/>
  </g>

  <!-- Decorative dots -->
  <circle cx="128" cy="128" r="7.68" fill="#d4af37" opacity="0.6"/>
  <circle cx="384" cy="128" r="7.68" fill="#d4af37" opacity="0.6"/>
  <circle cx="128" cy="384" r="7.68" fill="#d4af37" opacity="0.6"/>
  <circle cx="384" cy="384" r="7.68" fill="#d4af37" opacity="0.6"/>
</svg>