<svg xmlns="http://www.w3.org/2000/svg" width="128" height="128" viewBox="0 0 128 128">
  <defs>
    <linearGradient id="bgGradient" x1="0%" y1="0%" x2="100%" y2="100%">
      <stop offset="0%" style="stop-color:#faf8f5"/>
      <stop offset="100%" style="stop-color:#d4af37"/>
    </linearGradient>
    <linearGradient id="heartGradient" x1="0%" y1="0%" x2="100%" y2="100%">
      <stop offset="0%" style="stop-color:#d4b5a0"/>
      <stop offset="100%" style="stop-color:#9caf88"/>
    </linearGradient>
  </defs>

  <!-- Background circle -->
  <circle cx="64" cy="64" r="56" fill="url(#bgGradient)" stroke="#d4af37" stroke-width="2"/>

  <!-- Wedding rings -->
  <g transform="translate(64, 53.76)">
    <circle cx="-7.68" cy="0" r="10.24" fill="none" stroke="#d4af37" stroke-width="2.6666666666666665"/>
    <circle cx="7.68" cy="0" r="10.24" fill="none" stroke="#d4af37" stroke-width="2.6666666666666665"/>
    <circle cx="-7.68" cy="0" r="5.12" fill="#d4af37" opacity="0.3"/>
    <circle cx="7.68" cy="0" r="5.12" fill="#d4af37" opacity="0.3"/>
  </g>

  <!-- Heart -->
  <g transform="translate(64, 80)">
    <path d="M0,5.12 C-5.12,0 -10.24,0 -10.24,5.12 C-10.24,10.24 0,16 0,16 C0,16 10.24,10.24 10.24,5.12 C10.24,0 5.12,0 0,5.12 Z"
          fill="url(#heartGradient)" opacity="0.8"/>
  </g>

  <!-- Decorative dots -->
  <circle cx="32" cy="32" r="1.92" fill="#d4af37" opacity="0.6"/>
  <circle cx="96" cy="32" r="1.92" fill="#d4af37" opacity="0.6"/>
  <circle cx="32" cy="96" r="1.92" fill="#d4af37" opacity="0.6"/>
  <circle cx="96" cy="96" r="1.92" fill="#d4af37" opacity="0.6"/>
</svg>