<svg xmlns="http://www.w3.org/2000/svg" width="152" height="152" viewBox="0 0 152 152">
  <defs>
    <linearGradient id="bgGradient" x1="0%" y1="0%" x2="100%" y2="100%">
      <stop offset="0%" style="stop-color:#faf8f5"/>
      <stop offset="100%" style="stop-color:#d4af37"/>
    </linearGradient>
    <linearGradient id="heartGradient" x1="0%" y1="0%" x2="100%" y2="100%">
      <stop offset="0%" style="stop-color:#d4b5a0"/>
      <stop offset="100%" style="stop-color:#9caf88"/>
    </linearGradient>
  </defs>

  <!-- Background circle -->
  <circle cx="76" cy="76" r="68" fill="url(#bgGradient)" stroke="#d4af37" stroke-width="2.375"/>

  <!-- Wedding rings -->
  <g transform="translate(76, 63.839999999999996)">
    <circle cx="-9.12" cy="0" r="12.16" fill="none" stroke="#d4af37" stroke-width="3.1666666666666665"/>
    <circle cx="9.12" cy="0" r="12.16" fill="none" stroke="#d4af37" stroke-width="3.1666666666666665"/>
    <circle cx="-9.12" cy="0" r="6.08" fill="#d4af37" opacity="0.3"/>
    <circle cx="9.12" cy="0" r="6.08" fill="#d4af37" opacity="0.3"/>
  </g>

  <!-- Heart -->
  <g transform="translate(76, 95)">
    <path d="M0,6.08 C-6.08,0 -12.16,0 -12.16,6.08 C-12.16,12.16 0,19 0,19 C0,19 12.16,12.16 12.16,6.08 C12.16,0 6.08,0 0,6.08 Z"
          fill="url(#heartGradient)" opacity="0.8"/>
  </g>

  <!-- Decorative dots -->
  <circle cx="38" cy="38" r="2.28" fill="#d4af37" opacity="0.6"/>
  <circle cx="114" cy="38" r="2.28" fill="#d4af37" opacity="0.6"/>
  <circle cx="38" cy="114" r="2.28" fill="#d4af37" opacity="0.6"/>
  <circle cx="114" cy="114" r="2.28" fill="#d4af37" opacity="0.6"/>
</svg>